<?xml version='1.0' encoding='utf-8'?>
<svg xmlns="http://www.w3.org/2000/svg" enable-background="new 0 0 641.156 863.504" version="1.1" viewBox="0 0 641.16 863.5"> <g transform="translate(-74.151 924.69) scale(.1 -.1)"> <path d="m3474 9239c-42.002-21.001-58.999-67.002-58.999-161 0-102 2.998-98.999-97.002-67.998-116 35.996-151 23.999-123-44.004 18.999-43.999 18.999-55.996 0.996-55.996-28.999 0-264-72.002-361-111-55-22.002-137-62.002-182-88.999-45-28.003-91.001-50-101-50-11.001 0-91.001 30.996-178 68.999-155 66.997-243 100-680 255-245 86.997-314 106-379 106-127 0-171-73.003-217-355-20-124-17.002-531 5-680 42.998-286 103-492 240-810 72.998-171 81.001-196 80-251-1.001-68.999-26.001-166-47.998-186-8.003-7.002-21.001-18.999-30-26.001-20-16.997-20-157 0.996-258 22.002-107 70-239 111-304 21.001-32.002 27.002-48.003 16.001-37.002-11.001 10-28.999 32.998-38.999 52.002-18.999 35.996-33.999 45-33.999 21.997 0-30 43.999-166 73.999-231 17.998-38.999 56.001-100 83.999-136 27.998-36.001 47.998-68.003 43.999-71.001-3.999-3.999-70-33.999-148-68.003-149-65-318-155-474-253-115-72.998-230-157-230-169 0-21.001 35.996-3.999 152 71.997 145 95 412 231 626 319l152 62.998 92.998-88.999c50-50 106-101 124-115l32.002-23.999-112-49.004c-224-98.999-414-219-627-398-107-89.004-164-150-158-169 2.002-5.996 46.001 25 98.003 68.008 226 188.99 435 326 630 413 51.997 22.998 123 55 157 70l61.001 27.998 139-73.999c76.001-41.001 168-86.001 205-102 37.002-15 68.003-30 68.003-33.999s-24.004-47.002-53.003-95c-147-243-332-612-412-818-54.004-139-98.003-304-115-425-16.001-120-19.004-130-36.001-130-43.999 0-159-87.002-239-181.01-88.003-103-170-298.99-212-503.99-27.998-139-25-492 5-633 61.001-280 199-588.01 335-749 52.998-60.996 136-138 158-145 9.004-2.998 7.002-12.998-8.999-35-28.999-40.996-81.997-154-81.997-175 0-22.002-8.003-24.004-200-47.998-391-47.998-669-126-757-212-40-39.004-41.001-65.996-7.002-107 64.004-77.002 272-143.99 636-206 382-64.004 679-96.006 1098-116.01 231-10.996 237-11.992 359-50 163-51.992 226-55.996 931-65 762.01-8.994 1059 9.004 1271 76.006 84.004 27.002 115 30.996 299 40 679 32.998 1428 153.99 1673 270 117.99 55.996 150 118.99 90.996 181-60 62.002-255 133-498.01 179-60.996 10.996-111 22.002-111.99 22.998s26.992 45 61.992 97.002c102.01 152 181.02 358 219 570 34.004 195 30 565-9.004 677-6.992 20.996-21.992 41.992-32.988 46.992-18.008 8.008-20.996 22.002-25.996 106.01-6.016 117-34.004 185-106.02 258.99-45.996 47.002-148.98 121.01-170 121.01-5 0 2.012-39.004 15-87.002 24.004-85.996 31.016-167 17.012-176-5-3.008-38.008 22.998-75 56.992-60.996 56.006-74.004 75-146 221.01-105 212-182.01 325-287.01 422-95.996 88.994-81.992 53.994-155 378-80.996 361-260 790-522.99 1253-38.008 67.998-68.008 124-66.016 126 2.012 1.001 47.012 26.001 99.004 55 52.011 30 140 86.001 195 126 138.01 100 135 97.998 203.01 85 94.004-20 309-95 447.99-158 141.02-63.999 224-110 377.01-209 54.004-35 104-62.998 110-62.998 6.992 0 17.988-5 25-12.002 15-15 25.996-4.004 17.988 17.002-2.988 8.999-12.988 15-21.992 12.998s-31.992 12.002-51.992 30c-63.008 60-275 192-427.01 267-165 81.997-272.99 124-397.99 156-45 11.001-85 24.004-89.004 27.002-10 10 147.99 146 172.99 150 39.004 7.002 276.02-80 445-163 104-51.001 230-123 323.01-185 153.01-102 205-123 121-48.003-205 183-559 376-811.99 443-38.008 10-68.008 18.999-68.008 20 0 0.996 20.996 32.998 45.996 70.996 69.004 102 135 243 132.01 279-2.012 23.999-8.008 30-25 28.999-13.008 0-23.008 0-23.008 1.001 0 1.997 12.012 37.998 25.996 80.996 14.004 44.004 28.008 110 31.016 147 5 58.999 2.988 72.002-16.016 97.002-13.984 20-30.996 76.997-50.996 172-49.004 242-49.004 221 8.008 340 130 270 244 698 287.99 1078 22.012 197 16.016 601-10 672-20.996 57.002-71.992 104-121.99 114-144 27.002-560-87.998-1147-316l-158.01-61.001-111.99 55c-184 91.001-354 142-627.01 192-175 31.001-242.99 53.003-329 105-35 21.001-70 39.004-76.997 39.004-21.001 0-26.001-38.003-10-72.002 21.001-41.001 21.001-41.001-12.002-23.999-58.999 31.001-133 109-168 177-36.001 73.003-37.002 73.003-70 58.003z"/> <path d="m3610 8937c25-13.999 75.996-37.998 113-51.997 67.998-25 134-58.003 194-96.001 52.993-33.003 57.993-17.002 12.998 38.999-24.004 28.999-40 55-37.002 57.998 2.998 3.003 25.996-5.996 50-20.996 31.997-18.003 86.001-33.003 179.01-51.001 255-47.002 398.98-93.999 601-196l119-60 53.984 10c30 6.001 158.01 52.002 286.02 101 491.99 189 841.99 273 948.98 228 64.004-26.001 73.008-61.001 66.016-266-3.009-107-13.009-223-26.016-296-46.993-277-151.99-630-291-984-54.004-138-70-191-70-230 0-102 67.012-376 102.01-418 6.992-8.999 20.996-12.002 33.984-8.999 13.008 3.999 26.016 1.001 29.004-3.999 9.004-14.004-60.996-139-156.99-283-43.008-65-80.996-124-85-132-4.004-12.002 5-15 40.996-15 45 0 45.996-1.001 35-22.002-6.992-12.998-46.992-57.998-90.996-102-43.008-42.998-78.008-85-78.008-91.997 0-20-190-215-295-302-159-133-325-232-530-317-182.99-76.001-321-118-705-216.01-271-68.994-315-68.994-710-5-422 69.004-570 105-820 198-315 116-546 262-757 475-77.002 78.003-222 272-223 296 0 16.001 5.996 17.998 40 12.998 21.997-2.998 57.998-8.999 80-11.997 31.997-5 40.996-2.002 45.996 11.001 5 12.998-15.996 38.999-82.998 100-67.002 62.998-98.999 101-125 152-50 93.999-111 303-90 303 5 0 12.002-6.001 15-14.004 2.998-7.998 15-20 27.002-25.996 17.998-10 21.997-7.002 35 25 18.999 43.999 40.996 149 50 236 10 99.004-9.004 174-90 371-114 273-204 566-246 803-30 165-38.003 553-15 665 32.998 157 80 159 501 20 188-62.002 312-111 575-225 139-60 164-68.003 235-72.002l80-5 100 61.001c106 65 200 105 337 145 111 31.997 196 40 298 26.997 117-15 121-5.996 31.997 79.004-38.999 37.998-71.997 71.997-71.997 73.999 0 11.997 70-10 135-42.002 63.999-31.997 206-124 265-171 31.997-25.996 40-25.996 40 0 0 13.003-46.001 66.001-127 147-71.001 70-139 147-152 172l-23.999 45 48.999-46.001c27.002-25 70-57.002 94.004-72.002z" fill="#fff"/> <path d="m5106 5328c15-28.999 76.016-141 137.01-248 107.99-192 249-472 260-518 5.996-23.008 5-24.004-15.996-6.006-12.012 10-54.004 49.004-94.004 87.002s-77.011 65.996-82.011 62.998 32.012-77.998 83.007-165c199-343 273.01-638 246.99-986-15-190-13.984-216.01 3.008-209 19.004 7.002 60.996 89.004 80.996 157 9.004 30.996 19.004 57.002 22.012 57.002 2.988 0 25-17.998 48.984-40 25-22.998 53.008-40 66.016-40 20 0.996 16.992 5.996-24.004 42.998-27.012 24.004-48.008 45.996-48.008 50 0 17.002 109-62.998 171-126 164-165 241.02-366.01 242.01-632 0.996-110-3.008-147-25-236.01-42.012-166.99-182.01-538.99-203.01-538.99-1.992 0 12.012 33.994 32.012 75 18.984 42.002 32.988 77.998 30.996 80.996-3.008 2.002-35.996-45.996-74.004-107-116-188.99-294-353.99-361-336-10 2.998-30.996 7.998-48.008 12.002l-29.004 5.996 32.012 21.006c44.004 26.992 34.004 33.994-15 10-20.996-11.006-69.004-22.002-108.01-25l-70-6.006 55 49.004c78.008 70.996 47.012 62.998-81.992-20-34.004-22.002-65-40-70.996-40-5 0 15.996 27.002 46.992 60 30.996 33.994 60.996 70 66.992 80.996 10 20 9.004 20-20 5-15.996-8.994-56.992-38.994-90-65.996-33.984-27.998-60.996-47.998-60.996-45 0 18.994 134 278 207.01 398.99 130 217 185 341.01 247.99 556.01 54.004 187 92.012 447 63.008 438-7.012-2.998-22.012-47.998-35-109-60-288-161-528-383.01-908.99-162.99-281.01-307.99-551.01-330-615-25.996-76.006-25.996-159 0-210 75-146.01 67.012-328-17.988-421.01-30-32.998-110-90-116.02-82.998-1.992 2.002 6.016 36.006 20 74.004 28.008 82.998 32.012 186 9.004 262-12.988 43.994-47.988 92.998-59.004 81.992-1.992-1.992 3.008-32.998 10-68.994 39.004-178-40-367-168.98-405-59.004-17.002-165-20-220-4.004-34.004 9.004-38.008 12.998-32.012 32.002 27.012 87.002 12.012 99.004-45.996 35.996-43.008-45.996-59.004-45.996-119 0-134 105-170 256.01-116.99 487 14.004 60 32.988 177 41.992 260 27.012 252 70 407 177.01 650 132.99 300 363.98 568 646 748 111.99 71.006 89.004 90-45 35-179-75-389-253-505-428.99-103.01-155-278.01-517-349-719-16.992-50-34.004-88.994-36.992-85.996-3.008 2.002 0.996 50.996 7.988 108 7.012 57.002 10 110 8.008 118-3.008 7.998-22.012-20.996-44.004-65-31.992-67.998-38.008-92.002-41.992-163.99-5-89.004-15-92.002-26.016-7.002-15.991 127-105 428.99-122 413-5-5.996 36.006-218 66.006-338 27.002-105 35-180 20.996-180-5.996 0-10.996 5.996-10.996 13.994 0 8.008-14.004 57.002-31.006 108.01-55 165-148.99 330-226 398-25 22.002-50 37.002-53.999 33.994-5-2.998 12.998-46.992 40-96.992 60-113.01 96.001-197 128-302 36.997-124 27.002-130-46.997-25-110 156-126 183-155 257-16.001 40-31.001 70-35 67.998-4.004-2.002-3.003-32.002 0.996-67.002 8.003-70.996 5-84.004-10.996-42.002-111 291.01-301 565-539 779-126 113-199 166-310 228.99-93.999 54.004-138 59.004-81.997 10 18.999-15.996 70-60 115-98.994 300-261.01 622-657 765-943 86.001-171.01 163-513.01 177-789 8.003-150-7.998-223-63.999-298-43.999-57.998-101-91.006-130-76.006-27.998 15-50 68.008-61.001 146.01-10.996 78.994-16.997 87.002-30.996 50.996-13.003-35.996-13.003-121 0.996-170 14.004-50 3.003-60-86.997-75-78.999-13.994-130-2.998-178 39.004-65 57.002-116 188-116 296 0 59.004-22.002 54.004-33.003-7.002-11.001-62.998 0-123.99 37.002-216.99l32.998-82.002h-46.997c-96.001 0-231 126-266 248-33.003 113 0 266 71.997 333 16.001 15 24.004 34.004 24.004 56.006 0 95-111 321.99-358 733-210 348.99-273 493.99-350 810-60 247-66.997 293.99-66.001 510 0 225 15 333 71.001 502 43.999 133 104 238 190 328 36.001 38.994 63.003 73.994 58.999 77.002-12.998 13.994-112-48.008-177-109-48.999-47.998-65-57.998-67.002-44.004-6.001 31.006 78.999 278.01 133 386.01 28.999 57.998 86.997 152 129 208.99 77.998 106.01 81.997 116.01 66.997 140-6.997 11.006-16.997 8.008-51.997-16.992-23.999-18.008-47.002-32.002-52.002-32.002-21.001 0 55 110 138 198l91.997 97.002 174-42.998c207-51.006 265-61.006 599-107 400-55 458-60 543.99-47.002 101 15.996 608.01 133 743.01 172 58.984 17.002 181.99 60 272.99 93.999 90.996 35 171 63.999 177.01 65 6.992 0 25-23.003 38.984-51.001z" fill="#fff"/> <path d="m1790 3655c0-35 17.998-85 30-85 11.997 0 36.997 32.998 58.999 77.998 11.997 22.998 25 42.002 30 42.002 16.997 0 32.998-113 27.998-185-2.998-37.998-12.998-115-21.001-170-27.998-181.01-16.997-367 34.004-584 40.996-170 131-425 205-581l75-155-98.003 100c-52.998 55-119 131-147 168-53.003 72.998-70 75.996-34.004 5 49.004-97.998 157-238 266-346 63.003-61.006 112-112 108-112-23.003 0-171 113.99-262 203.99-35 33.008-62.998 57.002-62.998 53.008 0-34.004 134-217 188-256.01 15-10 23.999-22.998 20-25.996-16.001-17.002-263 183-326 264-20 26.006-46.997 61.006-60 77.002l-21.997 29.004 15-40c32.998-82.998 100-183 213-314 32.998-37.998 40-50.996 26.001-50.996-8.999 0-61.001 43.994-114 97.998-105 105-201 240-257 361-17.998 40-36.001 71.006-38.999 68.008-15-15 43.999-154 121-287l26.997-45-30 30.996c-46.001 49.004-142 211.01-180 304-18.999 47.002-47.998 128.99-62.998 183-105 362-65 797 95 1037 31.001 47.998 152 170 167 170 5-1e-3 9.004-16.007 9.004-35.001z" fill="#fff"/> <path d="m6443 2828c14.004-24.004 32.988-67.998 42.988-97.998 17.012-52.998 18.008-54.004 24.004-25 5 25.996 10.996 12.998 42.012-85 52.988-166.01 56.992-186.01 63.984-277 4.004-45.996 10-82.998 15-82.998 11.016 0-36.992-173-75.996-270-19.004-46.006-31.992-86.006-30-87.998 10-10 30 15.996 55.996 71.992 15 33.008 28.008 58.008 29.004 55 0.996-15-74.004-208.99-106-276.99-78.008-162-236-363.01-335-426.01-31.992-20-33.008-20-24.004-0.996 45.996 105-27.988 321-134 391-23.984 15-37.988 31.006-33.984 37.998 3.984 6.006 35 54.004 68.984 107 116.02 179 232.01 434 270 596.01 9.004 37.998 19.004 128.99 23.008 203 5.996 133 6.992 133.99 20 90 25-87.002 26.992-89.004 41.992-55 7.012 17.002 13.008 62.998 13.008 103 0 39.004 0.996 72.002 1.992 72.002 2.012 0 14.005-19.003 27.012-42.002z" fill="#fff"/> <path d="m2517 1705c51.001-34.004 123-203 123-289 0-38.994-9.004-75-32.002-127-27.998-63.994-32.002-85.996-32.998-158.99 0-47.002 3.999-99.004 7.998-117 7.998-30.996 7.002-32.002-27.998-39.004-19.004-2.998-95-3.994-168-1.992-119 3.994-138 6.992-194 31.992-144 65-222 221.01-193 384 5.996 35.996 21.997 87.002 35.996 113 18.003 37.002 21.001 49.004 11.001 49.004-16.997 0-58.999-57.998-82.998-115-38.999-87.998-13.003-268 51.997-368 14.004-22.002 23.003-42.002 20-45-3.999-3.008-31.997 11.992-63.999 35-96.001 66.993-142 168-144 316-2.002 80.996 27.002 146 95 215 106 109 233 145 467 135 67.998-2.001 113-9.003 127-17.998z" fill="#fff"/> <path d="m5715 1669c95-16.992 161-45.996 210-95 63.008-60 87.012-120 93.008-220 5.996-106-14.004-175-68.008-236.99-35.996-40-95.996-87.002-112.99-87.002-4.004 0 10.996 32.998 32.988 72.998 84.004 157 70.996 325-31.992 399l-30.997 20.995 25.996-44.004c35-60 50-150 36.992-218.99-20-107-91.992-220-162.99-256.01-27.012-13.994-127.01-35.996-127.01-26.992 0 1.992 14.004 21.992 30 45 33.008 45 60 123.99 60 171.99-0.996 28.008-4.004 24.004-32.988-35-66.016-135-126.02-183-247.01-195-67.988-5.996-259 11.006-272.99 25-4.004 4.004 1.992 45 12.988 92.002 29.004 124 27.012 194-10 264-37.988 72.002-37.988 106 0.996 183.99 35 70 86.016 114 153.01 132 90.997 25.001 321 29.004 441 7.999z" fill="#fff"/> <path d="m3771 1504-8.999-38.994-1.001 50c-0.996 32.998 2.002 45.996 9.004 38.994 6.997-6.993 6.997-23.995 0.996-50z" fill="#fff"/> <path d="m3821 1324c-12.998-113-13.994-303.99-2.002-303.99 14.004 0 19.004 23.994 31.006 145 12.998 133.99 42.002 316 35 220-2.998-32.998-7.998-133-11.006-222-5-140-3.994-163 8.008-163 11.992 0 17.998 22.002 26.992 87.002 16.006 126.99 31.006 128.99 31.006 5v-102h-203l7.002 113c2.998 60.996 10 141 13.999 177 7.002 62.002 7.002 60 12.002-57.002 7.998-185 25-177 32.998 14.004 4.004 86.992 10 176 14.004 198 6.992 37.998 7.998 37.998 10.996 10 2.002-16.006-0.996-71.006-7.002-121.01z" fill="#fff"/> <path d="m3927 1418c-2.002-12.998-4.004-5-4.004 17.002-0.996 22.002 0.996 32.002 4.004 22.998 1.992-10 1.992-27.998 0-40z" fill="#fff"/> <path d="m3777 1363c-2.998-10-5-4.004-5 12.002 0 17.002 2.002 23.994 5 17.998 2.002-7.001 2.002-20.996 0-30z" fill="#fff"/> <path d="m1340 8767c-38.003-18.999-49.004-66.997-49.004-217-0.996-149 18.003-339 49.004-491 47.998-235 211-636 291-718 48.003-47.998 96.001-62.998 129-40.996 12.998 8.999 10 13.999-14.004 33.999-35 28.999-28.999 41.997 24.004 51.001 42.998 6.997 130 60 130 78.999 0 6.997-13.003 21.997-30 33.999-16.001 12.998-30 26.001-30 30s21.997 15 48.999 25c51.997 17.998 101 65 101 96.001 0 10-9.004 28.999-19.004 42.998-20.996 26.001-96.997 65-107 55-3.999-3.999 6.997-21.997 25-41.997 40-46.001 38.999-63.003-3.999-81.001-62.002-26.001-112-17.002-162 28.999l-22.998 20v-25c0-13.999 6.997-45 15-67.998 33.999-97.002 12.998-93.003-64.004 12.998-68.999 92.998-168 285-205 398-36.997 115-63.999 254-76.997 391-12.002 132-8.003 273 7.998 289 13.003 13.003 68.999-7.998 206-76.997 120-60 231-130 262-164 17.998-20 17.998-21.001-3.003-36.001s-31.001-53.999-13.999-53.999c28.999 0 182-186 182-222 0-5-15-1.001-32.002 8.999-42.998 23.003-164 25-178 3.003-14.004-22.002-14.004-23.003 43.999-96.001 105-135 109-162 31.001-198-65-28.999-71.001-51.997-19.004-61.997 63.003-12.002 149 1.997 205 31.997 64.004 35 71.001 50 26.001 58.003-41.997 7.998-96.997 53.999-160 135l-47.998 61.001h31.001c16.997 0 65.996-14.004 110-31.001 85.996-33.003 146-36.001 163-8.003 17.998 29.004-12.998 79.004-121 191-61.001 63.003-97.998 108-88.999 108 28.999 0 148-49.004 209-86.001 48.003-30 62.002-33.999 68.999-23.003 35 56.001-62.998 159-287 301-146 93.003-250 145-411 209-146 57.002-179 64.004-213 46.001z"/> <path d="m5900 8745c-62.988-18.003-162.99-51.001-222.99-74.004-212.01-78.999-564-276-604-338-15.996-23.999-15.996-26.001 1.992-38.999 30-22.002 52.012-17.002 116 26.997 77.012 52.002 129 75 129 56.001 0-6.997-24.004-53.999-54.004-105-66.992-112-72.988-130-50-139 18.008-6.001 255 109 277.01 135 9.004 11.001 6.992 17.002-7.012 27.002-15.996 11.997-13.984 15 23.008 36.997 23.008 13.003 40.996 30 40.996 38.003 0 20.996-20 40-41.992 40-65 0 40 81.997 205 160 181 85.996 307.99 118 340 85 44.004-44.004-3.008-385-90-645-52.012-157-158.01-359-210-402-15-11.001-15.996-11.001-9.004 7.002 30 70.996 66.992 188 64.004 201-2.012 10-15.996-5-38.008-37.998-32.988-50-101-101-115-86.001-2.988 3.003 8.008 21.001 24.004 38.999 40 44.004 39.004 56.001-3.008 30-17.988-11.997-50-20.996-71.992-20.996-38.008 0-124 35-124 50 0 10.996 68.008 110 97.012 142 38.984 41.001 25 62.002-56.016 87.002l-68.984 21.001 12.988 41.997c7.012 23.999 15.996 51.001 20 61.001 10 25-30 22.998-75-3.999-80-48.003-130-119-130-184 0-40 3.008-41.001 70-19.004 25.996 9.004 58.007 14.004 70.996 12.002 20-2.998 15-11.001-53.984-82.002-81.016-82.998-88.008-103-44.004-123 24.004-11.001 181-48.999 240-57.998 20-3.003 36.992-9.004 36.992-13.003s-34.004-23.999-75-45c-54.004-26.001-72.988-41.001-69.004-51.997 9.004-23.003 128.01-74.004 205-87.002l72.012-12.998-48.008-41.001c-40-36.001-46.992-46.001-40.996-68.003 5-21.997 11.992-25.996 45-25.996 51.992 0 90 42.998 151.99 175 196.02 415 308.01 842 297.01 1129-5.001 151-30.997 162-238.01 101z"/> <path d="m5509 7916c-23.008-38.999-89.004-109-95.996-102-5.996 6.001 97.988 136 107.99 136 5.001 0-0.995-15-11.992-34.004z" fill="#fff"/> <path d="m3580 7926c0-45.996 8.999-88.999 30.996-153 33.003-92.998 47.002-119 60-106 10 11.001 39.004 170 39.004 214v34.004l-20-30c-11.001-16.001-22.002-43.003-26.001-58.003-8.003-40-17.002-26.001-43.999 71.001-13.003 45-27.002 85-31.001 87.998-5 3.003-8.999-23.999-8.999-60z"/> <path d="m4560 7633c-100-17.002-177.99-62.998-215-127-22.988-38.999-32.988-85.996-20-85.996 3.008 0 18.008 11.997 33.008 25.996 65.996 62.002 166 94.004 296.99 94.004 139 0 272.01-43.003 386-125 60-43.003 72.012-29.004 22.012 25.996-118.01 131-348.01 219-503.01 192z"/> <path d="m2675 7514c-102-25-213-85-279-152-31.997-32.998-62.998-66.997-67.998-76.001-21.001-36.997 1.001-33.999 57.998 8.003 139 100 230 131 389 131 138-1.001 177-13.003 259-84.004 26.001-22.998 51.001-40 53.999-36.997 11.001 11.997-51.001 117-92.002 154-73.999 67.998-188 87.998-321 56.001z"/> <path d="m4640 7319c-195-32.002-356-212-395-443-16.992-101-19.004-220-4.004-286 15-71.001 16.016-73.003 37.012-53.003 9.004 10 32.988 31.001 50.996 46.001l34.004 27.998-18.008 38.003c-15 33.999-15 46.997-5 115 7.012 41.997 17.012 76.001 20.996 76.001 5 0 24.004-31.001 44.004-69.004 19.004-37.998 47.012-78.999 64.004-90 121.99-86.997 340-92.998 456-12.998 47.012 32.998 90 107 116 201l19.004 66.001-5-67.002c-5-77.002-35-146-92.988-210l-37.012-41.001 38.008 6.001c50 7.998 95 42.002 147.99 115 24.004 32.002 61.016 72.002 83.008 87.998 23.008 17.002 58.008 42.002 79.004 58.003 52.988 38.999 47.988 52.998-20 61.001-99.004 10-101 10.996-160 120-62.012 115-113.01 171-192.01 214-47.988 25-160 53.999-196 50-5-1.001-35-5-65-10z"/> <path d="m4660 7090c47.012-47.002 10.996-130-55.996-130-60 0-95 75.996-58.008 128 20 28.999 85 31.001 114 2.002z" fill="#fff"/> <path d="m2630 7227c-142-47.998-250-162-288-304l-18.999-67.998-50-5c-55-6.001-82.998-23.003-82.998-50 0-22.002 22.998-42.002 90-75 30.996-16.001 81.997-55 115-90 32.998-34.004 70-67.002 81.997-73.003 23.003-12.998 73.003-16.001 73.003-6.001 0 3.003-20 28.003-44.004 56.001-48.999 53.999-85.996 138-85.996 196 0 35 31.997 122 45 122 2.998 0 2.998-22.002-1.001-48.003-7.002-56.001 10-150 36.997-203 25-51.001 92.002-105 153-126 71.997-23.999 203-21.001 279 6.001 82.998 28.999 114 55 149 124 28.999 58.999 31.001 61.001 40 37.002 6.001-14.004 12.002-54.004 13.003-90 3.999-63.003 5-66.001 47.998-102l43.999-37.998 18.003 40.996c16.997 37.002 17.998 48.003 5.996 132-30 211-75.996 346-148 435-107 131-307 186-473 129z"/> <path d="m2811 7051c48.003-47.998 37.002-116-22.998-147-45-23.003-93.999-11.001-119 28.999-61.001 97.002 61.001 198 142 118z" fill="#fff"/> <path d="m3588 6405c-75-24.004-108-88.003-77.002-148 16.001-30 28.003-36.997 65-36.997 36.001 0 52.002-16.001 88.003-87.002 30-60 35-137 11.001-182-23.003-45-95-75-189-78.999-107-6.001-172 10-239 58.999-109 77.002-151 35-43.999-43.999 76.001-56.997 145-83.999 250-98.999 68.999-8.999 88.999-16.001 144-53.999 76.001-52.002 95-58.003 172-52.002 56.997 3.999 107 27.002 172 78.999 18.003 15 49.995 24.004 106.01 30 132.99 15 216.99 50 325 138 60.996 48.999 66.992 61.001 42.988 81.001-12.988 10.996-21.992 7.998-52.988-17.002-113.01-91.001-221.02-127-366.02-121-153.99 6.001-210.99 43.999-222.99 147-6.001 51.001-10 41.997 84.004 199 7.998 12.998 22.998 22.002 36.992 22.002 44.004 0 76.001 61.997 56.006 109-21.006 51.001-62.002 65-195 67.998-86.001 2.002-133-1.001-167-11.997z"/> <path d="m3876 6355c20-8.003 34.004-19.004 32.002-25-0.996-5-22.998-20-47.998-32.002-37.998-20-47.998-31.001-67.002-77.998-20-51.001-23.999-55-55-55-28.999 0-36.001 5.996-60 50-32.998 60.996-51.001 75-98.999 75-43.003 0-50 5.996-38.003 36.997 11.001 28.999 66.001 41.001 197 42.002 70 1.001 114-3.999 138-13.999z" fill="#fff"/> <path d="m3784 5810c24.995-12.002 46.001-23.003 46.001-26.001 0-3.003-16.006-12.002-36.001-20-42.002-18.003-93.999-11.001-143 18.999l-35 21.001 30 12.998c43.003 18.003 85 16.001 138-6.997z" fill="#fff"/> <path d="m5106 6226c-37.988-13.999-73.984-41.997-65-50 2.012-1.997 33.008 1.001 69.004 6.001 64.004 8.999 221 5 254-7.998 35-13.003 14.004 16.997-25.996 36.997-54.999 28.003-175 36.001-232.01 15z"/> <path d="m2317 6184c-66.001-16.001-128-45-109-52.002 7.002-1.997 57.998 1.001 114 7.002s142 7.998 190 5c77.002-6.001 88.003-5 88.003 8.999 0 40-169 58.999-283 31.001z"/> <path d="m3247 6174c-3.999-3.999-6.997-16.001-6.997-26.001 0-20 25-25 35.996-7.002 8.003 13.003-18.999 43.003-28.999 33.003z"/> <path d="m4051 6076c-8.984-10-7.988-15.996 3.008-25 10-8.999 15.996-7.998 25 3.003 9.004 10 8.008 16.001-3.008 25-10 8.999-15.996 7.998-25-3.003z"/> <path d="m5156 6073c-82.988-30-70-42.002 36.016-36.001 65.996 3.999 110 1.001 150-10 55-13.999 56.992-13.999 47.988 3.003-25.997 47.998-154 70.996-234 42.998z"/> <path d="m3357 6043c-3.999-2.998-6.997-12.002-6.997-20 0-15 25.996-17.998 33.999-3.999 6.997 11.001-18.003 32.998-27.002 23.999z"/> <path d="m2301 6015c-97.998-22.002-190-54.004-251-89.004-44.004-25-51.001-31.997-33.003-33.999 12.002-1.997 57.002 8.003 100 21.001 73.999 23.999 234 57.998 333 72.002 25 3.999 62.998 10.996 85 16.997 37.998 10 38.999 12.002 15 18.999-41.001 12.002-180 8.003-249-5.996z"/> <path d="m3632 5535c3.999-24.004 65-55 108-55 43.999 0 103.99 28.999 108 52.998 2.998 17.002 0 17.998-30 11.001-17.998-5-52.998-8.999-77.998-8.999s-60 3.999-78.003 8.999c-28.999 6.997-32.998 6.001-30-8.999z"/> <path d="m2090 3938c-7.002-24.004-19.004-70-27.002-103-17.002-75-30-462-16.001-476.01 7.002-6.992 12.002 48.008 16.001 163.01 2.998 101 13.999 230 27.002 311.99 11.997 76.006 18.999 140 16.997 142-1.997 2.002-10-15-16.997-37.998z"/> <path d="m3952 3458c-11.006-35-34.004-114-52.002-176-17.998-61.006-35-111.01-36.006-109-1.992 2.002-7.998 39.004-13.994 82.998-31.006 241.01-44.004 289-54.004 202-1.997-24.004-11.997-108-21.997-188-25-205-22.002-310 11.001-455 25-111.01 37.998-146.01 48.994-134 3.008 2.998 15 67.998 26.006 144 12.002 77.002 43.994 230 70.996 340 49.995 203 72.007 355 51.011 355-6.016 0-20-27.998-30.005-62.002z"/> </g> </svg>